<svg width="4096" height="1024" viewBox="0 0 4096 1024" fill="none" xmlns="http://www.w3.org/2000/svg">
<g clip-path="url(#clip0_1705_15939)">
<rect width="4096" height="1024" fill="#E9D3D7"/>
<path d="M1984.52 478H1502.18V465V463.876L1501.06 464.007C1497.77 464.393 1491.93 467.913 1491.2 478H1450V162H2026V478H1996V462V460.491L1994.61 461.079C1990.06 463.005 1984.85 468.243 1984.52 478Z" fill="#912338" stroke="black" stroke-width="2"/>
<path d="M2564.53 478H2056.48C2056.13 470.611 2051.96 465.441 2045.86 463.068L2044.5 462.538V464V478H2020V162H2601V478H2581V463V461.853L2579.86 462.009C2577.25 462.369 2573.45 463.851 2570.28 466.594C2567.29 469.191 2564.82 472.958 2564.53 478Z" fill="#912338" stroke="black" stroke-width="2"/>
<path d="M2621.59 160.512V153.094C2623.15 153.297 2625.14 153.81 2626.9 154.789C2629.06 155.993 2630.8 157.842 2631.15 160.637L2631.26 161.512H2632.14H3328V477.978H3194.95H3193.95V478.978C3193.95 480.259 3193.49 481.783 3192.63 483.389C3191.78 484.984 3190.57 486.599 3189.15 488.042C3186.6 490.64 3183.54 492.528 3180.89 492.923V478.978V477.978H3179.89H2716.99H2716.09L2715.99 478.867C2715.52 483.125 2713.76 485.83 2711.55 487.508C2709.61 488.984 2707.24 489.715 2704.93 489.932V478.978V477.978H2703.93H2599V161.512H2620.59H2621.59V160.512Z" fill="#912338" stroke="black" stroke-width="2"/>
<path d="M3357 478H3322V162H3584V478H3367.5H3366.5V479V488.593C3365.43 488.559 3363.92 488.076 3362.41 486.869C3360.54 485.37 3358.74 482.796 3357.98 478.813L3357.83 478H3357Z" fill="#912338" stroke="black" stroke-width="2"/>
<rect x="3454" y="363" width="130" height="115" fill="#912338" stroke="black" stroke-width="2"/>
<path d="M3737.21 611H3723H3722V612V746H3663.5H3662.5V747C3662.5 749.657 3660.4 752.063 3657.33 754.062C3654.8 755.707 3651.83 756.932 3649.5 757.666V747V746H3648.5H3546V478H3634H3635V477V462.448C3637.73 463.58 3640.74 465.42 3643.19 467.727C3646.05 470.428 3648 473.641 3648 477V478H3649H3722V599.5V600.395L3722.89 600.494C3732.08 601.515 3736.04 607.394 3737.21 611Z" fill="#912338" stroke="black" stroke-width="2"/>
<mask id="path-7-inside-1_1705_15939" fill="white">
<path d="M3916 0H4096V1110H3916V0Z"/>
</mask>
<path d="M3916 0H4096V1110H3916V0Z" fill="#912338"/>
<path d="M3918 1110V0H3914V1110H3918Z" fill="black" mask="url(#path-7-inside-1_1705_15939)"/>
<path d="M3191.3 581.315C3193.91 579.083 3196.92 577.804 3199.23 577.229V593.469V594.469H3200.23H3546V858H2813V594.469H3184.55H3185.52L3185.55 593.503C3185.75 587.829 3188.25 583.922 3191.3 581.315Z" fill="#912338" stroke="black" stroke-width="2"/>
<path d="M2765.5 592.623C2765.95 588.096 2768.41 582.205 2774.5 580.293V592.524V593.524H2775.5H2819V858H2599V593.524H2635.19V610.055V611.055H2636.19C2637.59 611.055 2639.14 610.309 2640.6 609.253C2642.09 608.172 2643.62 606.663 2645 604.914C2647.52 601.71 2649.65 597.545 2649.96 593.524H2764.5H2765.41L2765.5 592.623Z" fill="#912338" stroke="black" stroke-width="2"/>
<path d="M2774.5 593V594H2775.5H2819V700H2692V594H2764.5H2765.5V593C2765.5 585.385 2770.9 581.615 2774.5 580.334V593Z" stroke="black" stroke-width="2"/>
<path d="M2111.5 593V580.058C2113.23 580.311 2115.58 581.351 2117.64 583.227C2120.07 585.442 2122 588.727 2122 593V594H2123H2565.5H2566.46L2566.5 593.038C2566.84 584.24 2572.75 580.399 2576.5 579.267V593V594H2577.5H2601V858H2047V594H2110.5H2111.5V593Z" fill="#912338" stroke="black" stroke-width="2"/>
<path d="M1539 594V579.779C1541.21 580.416 1544.09 581.69 1546.63 583.751C1549.64 586.196 1552.13 589.712 1552.5 594.576L1552.57 595.502L1553.5 595.5L2025 594.5L2025.96 594.498L2026 593.54C2026.19 588.814 2028.19 585.125 2030.62 582.635C2031.83 581.388 2033.14 580.451 2034.36 579.839C2035.15 579.445 2035.88 579.199 2036.5 579.081V593V594H2037.5H2053V858H1485V594.509L1537.99 595L1539 595.009V594Z" fill="#912338" stroke="black" stroke-width="2"/>
<path d="M1433.16 594H1491V858H1212V594H1237.7V608.5V609.924L1239.04 609.441C1239.24 609.368 1239.44 609.295 1239.65 609.221C1242.26 608.287 1245.43 607.154 1247.97 604.957C1250.63 602.667 1252.56 599.285 1252.77 594H1416.97V608.5V609.789L1418.22 609.469C1420.93 608.775 1424.9 607.143 1428.07 604.464C1431.02 601.975 1433.35 598.498 1433.16 594Z" fill="#912338" stroke="black" stroke-width="2"/>
<path d="M680.816 582.672C683.501 580.641 686.614 579.38 689 578.754V593V594H690H950.5V609V610.251L951.72 609.975C954.524 609.342 958.481 607.13 961.583 604.131C964.388 601.419 966.708 597.849 966.595 594H1027V609V610.17L1028.16 609.988C1031.53 609.455 1035.46 607.611 1038.56 604.732C1041.45 602.045 1043.67 598.396 1043.97 594H1212V858H482V594H674H674.961L674.999 593.04C675.184 588.425 677.672 585.051 680.816 582.672Z" fill="#912338" stroke="black" stroke-width="2"/>
<path d="M1417.93 190.316V202V203H1418.93H1450V467H1433.6V451V449.761L1432.39 450.023C1428.28 450.911 1420.48 455.575 1420.05 467H1268V203H1406.31H1407.31V202C1407.31 198.861 1409.51 195.95 1412.27 193.699C1413.62 192.593 1415.06 191.691 1416.31 191.049C1416.93 190.731 1417.47 190.489 1417.93 190.316Z" fill="#912338" stroke="black" stroke-width="2"/>
<path d="M1020.5 468V467H1019.5H974V203H1275V467H1033H1032V468C1032 472.438 1029.94 475.5 1027.32 477.565C1025.11 479.303 1022.52 480.318 1020.5 480.79V468Z" fill="#912338" stroke="black" stroke-width="2"/>
<path d="M934.5 457V467H713V203H982V467H946.86C946.334 464.523 944.577 461.962 942.622 459.995C941.503 458.87 940.27 457.888 939.067 457.182C937.888 456.489 936.635 456 935.5 456H934.5V457Z" fill="#912338" stroke="black" stroke-width="2"/>
<path d="M668.266 454.5V467H482V203H717V467H681.01C680.576 459.592 675.37 453.5 669.266 453.5H668.266V454.5Z" fill="#912338" stroke="black" stroke-width="2"/>
<path d="M354.851 634.27C349.997 636.38 344.206 637.277 340 637.467V623V622H339H175V358H339H340V357V342.025C343.607 342.201 348.794 343.286 353.481 345.294C358.676 347.521 362.916 350.733 364.036 354.768L366 354.5C366 353.008 366.822 351.47 368.405 349.947C369.978 348.432 372.201 347.035 374.738 345.843C379.422 343.642 384.971 342.235 389 342.027V357V358H390H482V622H390H389V623V637.485C382.807 637.3 377.37 635.412 373.328 632.729C369.043 629.885 366.44 626.231 365.991 622.868L364 623C364 628.402 360.13 631.976 354.851 634.27Z" fill="#912338" stroke="black" stroke-width="2"/>
<mask id="path-21-inside-2_1705_15939" fill="white">
<path d="M-1 722H212V1024H-1V722Z"/>
</mask>
<path d="M-1 722H212V1024H-1V722Z" fill="#912338"/>
<path d="M212 722H214V720H212V722ZM-1 724H212V720H-1V724ZM210 722V1024H214V722H210Z" fill="black" mask="url(#path-21-inside-2_1705_15939)"/>
<mask id="path-23-inside-3_1705_15939" fill="white">
<path d="M-1 -1H212V722H-1V-1Z"/>
</mask>
<path d="M-1 -1H212V722H-1V-1Z" fill="#912338"/>
<path d="M210 -1V722H214V-1H210Z" fill="black" mask="url(#path-23-inside-3_1705_15939)"/>
<path d="M590.845 331.727V339H589.527V333.009H589.485L587.784 334.096V332.888L589.591 331.727H590.845ZM592.691 339V338.048L595.216 335.573C595.458 335.329 595.659 335.113 595.82 334.923C595.981 334.734 596.102 334.55 596.182 334.373C596.262 334.195 596.303 334.006 596.303 333.805C596.303 333.575 596.251 333.379 596.146 333.215C596.042 333.049 595.899 332.922 595.717 332.832C595.535 332.742 595.327 332.697 595.095 332.697C594.856 332.697 594.647 332.746 594.467 332.846C594.287 332.943 594.147 333.081 594.048 333.261C593.951 333.441 593.902 333.656 593.902 333.904H592.649C592.649 333.442 592.754 333.041 592.965 332.7C593.175 332.359 593.465 332.095 593.835 331.908C594.206 331.721 594.633 331.628 595.113 331.628C595.601 331.628 596.029 331.719 596.399 331.901C596.768 332.084 597.054 332.333 597.258 332.651C597.464 332.968 597.567 333.33 597.567 333.737C597.567 334.009 597.515 334.277 597.411 334.54C597.307 334.803 597.123 335.094 596.86 335.413C596.6 335.733 596.234 336.12 595.763 336.575L594.509 337.849V337.899H597.677V339H592.691ZM598.615 337.651V336.603L601.7 331.727H602.574V333.219H602.041L599.964 336.511V336.567H604.271V337.651H598.615ZM602.084 339V337.331L602.098 336.862V331.727H603.341V339H602.084Z" fill="white"/>
<path d="M841.991 331.727V339H840.674V333.009H840.631L838.93 334.096V332.888L840.738 331.727H841.991ZM843.838 339V338.048L846.363 335.573C846.604 335.329 846.805 335.113 846.966 334.923C847.127 334.734 847.248 334.55 847.328 334.373C847.409 334.195 847.449 334.006 847.449 333.805C847.449 333.575 847.397 333.379 847.293 333.215C847.189 333.049 847.046 332.922 846.863 332.832C846.681 332.742 846.474 332.697 846.242 332.697C846.003 332.697 845.793 332.746 845.613 332.846C845.433 332.943 845.294 333.081 845.194 333.261C845.097 333.441 845.049 333.656 845.049 333.904H843.795C843.795 333.442 843.9 333.041 844.111 332.7C844.322 332.359 844.612 332.095 844.981 331.908C845.353 331.721 845.779 331.628 846.26 331.628C846.747 331.628 847.176 331.719 847.545 331.901C847.914 332.084 848.201 332.333 848.404 332.651C848.61 332.968 848.713 333.33 848.713 333.737C848.713 334.009 848.661 334.277 848.557 334.54C848.453 334.803 848.27 335.094 848.007 335.413C847.746 335.733 847.381 336.12 846.909 336.575L845.656 337.849V337.899H848.824V339H843.838ZM850.049 339V338.048L852.574 335.573C852.815 335.329 853.016 335.113 853.177 334.923C853.338 334.734 853.459 334.55 853.539 334.373C853.62 334.195 853.66 334.006 853.66 333.805C853.66 333.575 853.608 333.379 853.504 333.215C853.4 333.049 853.257 332.922 853.074 332.832C852.892 332.742 852.685 332.697 852.453 332.697C852.214 332.697 852.004 332.746 851.824 332.846C851.644 332.943 851.505 333.081 851.405 333.261C851.308 333.441 851.26 333.656 851.26 333.904H850.006C850.006 333.442 850.111 333.041 850.322 332.7C850.533 332.359 850.823 332.095 851.192 331.908C851.564 331.721 851.99 331.628 852.471 331.628C852.958 331.628 853.387 331.719 853.756 331.901C854.125 332.084 854.412 332.333 854.615 332.651C854.821 332.968 854.924 333.33 854.924 333.737C854.924 334.009 854.872 334.277 854.768 334.54C854.664 334.803 854.48 335.094 854.218 335.413C853.957 335.733 853.592 336.12 853.12 336.575L851.867 337.849V337.899H855.034V339H850.049Z" fill="white"/>
<path d="M1123.76 331.727V339H1122.44V333.009H1122.4L1120.7 334.096V332.888L1122.51 331.727H1123.76ZM1125.61 339V338.048L1128.13 335.573C1128.37 335.329 1128.58 335.113 1128.74 334.923C1128.9 334.734 1129.02 334.55 1129.1 334.373C1129.18 334.195 1129.22 334.006 1129.22 333.805C1129.22 333.575 1129.17 333.379 1129.06 333.215C1128.96 333.049 1128.82 332.922 1128.63 332.832C1128.45 332.742 1128.24 332.697 1128.01 332.697C1127.77 332.697 1127.56 332.746 1127.38 332.846C1127.2 332.943 1127.06 333.081 1126.96 333.261C1126.87 333.441 1126.82 333.656 1126.82 333.904H1125.57C1125.57 333.442 1125.67 333.041 1125.88 332.7C1126.09 332.359 1126.38 332.095 1126.75 331.908C1127.12 331.721 1127.55 331.628 1128.03 331.628C1128.52 331.628 1128.95 331.719 1129.32 331.901C1129.68 332.084 1129.97 332.333 1130.17 332.651C1130.38 332.968 1130.48 333.33 1130.48 333.737C1130.48 334.009 1130.43 334.277 1130.33 334.54C1130.22 334.803 1130.04 335.094 1129.78 335.413C1129.52 335.733 1129.15 336.12 1128.68 336.575L1127.43 337.849V337.899H1130.59V339H1125.61ZM1134.51 339.138C1133.92 339.138 1133.42 338.991 1133 338.695C1132.59 338.396 1132.26 337.967 1132.04 337.406C1131.82 336.842 1131.71 336.164 1131.71 335.371C1131.71 334.578 1131.82 333.903 1132.04 333.347C1132.27 332.788 1132.59 332.362 1133.01 332.068C1133.42 331.775 1133.92 331.628 1134.51 331.628C1135.09 331.628 1135.59 331.775 1136.01 332.068C1136.43 332.362 1136.75 332.788 1136.97 333.347C1137.2 333.905 1137.31 334.58 1137.31 335.371C1137.31 336.166 1137.2 336.846 1136.97 337.409C1136.75 337.97 1136.43 338.399 1136.01 338.695C1135.59 338.991 1135.09 339.138 1134.51 339.138ZM1134.51 338.027C1134.96 338.027 1135.32 337.803 1135.58 337.356C1135.85 336.906 1135.98 336.244 1135.98 335.371C1135.98 334.793 1135.92 334.308 1135.8 333.915C1135.68 333.522 1135.51 333.226 1135.29 333.027C1135.07 332.826 1134.81 332.725 1134.51 332.725C1134.06 332.725 1133.7 332.95 1133.43 333.4C1133.17 333.847 1133.04 334.504 1133.04 335.371C1133.03 335.951 1133.09 336.438 1133.21 336.834C1133.33 337.229 1133.5 337.527 1133.72 337.729C1133.94 337.928 1134.2 338.027 1134.51 338.027Z" fill="white"/>
<path d="M842.558 722.727V730H841.24V724.009H841.197L839.496 725.096V723.888L841.304 722.727H842.558ZM847.362 722.727V730H846.045V724.009H846.002L844.301 725.096V723.888L846.109 722.727H847.362ZM851.734 722.628C852.082 722.63 852.42 722.692 852.749 722.812C853.081 722.931 853.379 723.125 853.644 723.395C853.909 723.662 854.12 724.021 854.276 724.471C854.433 724.921 854.511 725.477 854.511 726.14C854.513 726.765 854.447 727.324 854.312 727.816C854.179 728.306 853.989 728.72 853.74 729.059C853.491 729.397 853.192 729.656 852.842 729.833C852.491 730.011 852.097 730.099 851.659 730.099C851.2 730.099 850.793 730.009 850.438 729.83C850.085 729.65 849.799 729.403 849.582 729.091C849.364 728.778 849.23 728.421 849.18 728.018H850.477C850.543 728.307 850.678 728.537 850.881 728.707C851.087 728.875 851.347 728.96 851.659 728.96C852.163 728.96 852.552 728.741 852.824 728.303C853.096 727.865 853.232 727.256 853.232 726.477H853.183C853.067 726.686 852.916 726.866 852.732 727.017C852.547 727.166 852.337 727.281 852.103 727.362C851.871 727.442 851.625 727.482 851.364 727.482C850.938 727.482 850.555 727.38 850.214 727.177C849.875 726.973 849.607 726.694 849.408 726.339C849.211 725.984 849.112 725.578 849.109 725.121C849.109 724.647 849.218 724.222 849.436 723.846C849.656 723.467 849.963 723.169 850.356 722.951C850.749 722.731 851.208 722.623 851.734 722.628ZM851.737 723.693C851.482 723.693 851.251 723.756 851.045 723.881C850.841 724.004 850.68 724.173 850.562 724.386C850.446 724.596 850.388 724.832 850.388 725.092C850.39 725.35 850.448 725.585 850.562 725.795C850.678 726.006 850.835 726.173 851.034 726.296C851.235 726.419 851.465 726.481 851.723 726.481C851.915 726.481 852.094 726.444 852.259 726.371C852.425 726.297 852.569 726.196 852.692 726.065C852.818 725.933 852.915 725.782 852.984 725.614C853.055 725.446 853.089 725.269 853.087 725.082C853.087 724.833 853.027 724.603 852.909 724.393C852.793 724.182 852.633 724.013 852.43 723.885C852.228 723.757 851.998 723.693 851.737 723.693Z" fill="white"/>
<path d="M1347.87 730.727V738H1346.55V732.009H1346.51L1344.8 733.096V731.888L1346.61 730.727H1347.87ZM1352.67 730.727V738H1351.35V732.009H1351.31L1349.61 733.096V731.888L1351.42 730.727H1352.67ZM1354.78 738L1357.88 731.878V731.828H1354.29V730.727H1359.24V731.853L1356.15 738H1354.78Z" fill="white"/>
<path d="M1748.64 730.727V738H1747.32V732.009H1747.28L1745.57 733.096V731.888L1747.38 730.727H1748.64ZM1753.44 730.727V738H1752.12V732.009H1752.08L1750.38 733.096V731.888L1752.19 730.727H1753.44ZM1757.82 738.099C1757.34 738.099 1756.92 738.011 1756.54 737.833C1756.17 737.653 1755.87 737.407 1755.65 737.094C1755.43 736.782 1755.32 736.424 1755.3 736.022H1756.58C1756.61 736.32 1756.74 736.564 1756.97 736.754C1757.2 736.941 1757.49 737.034 1757.82 737.034C1758.07 737.034 1758.3 736.975 1758.5 736.857C1758.71 736.738 1758.86 736.574 1758.98 736.363C1759.1 736.152 1759.15 735.912 1759.15 735.642C1759.15 735.367 1759.09 735.124 1758.98 734.911C1758.86 734.697 1758.7 734.531 1758.49 734.41C1758.28 734.287 1758.05 734.225 1757.78 734.225C1757.56 734.223 1757.35 734.263 1757.14 734.346C1756.93 734.429 1756.76 734.538 1756.64 734.673L1755.45 734.477L1755.83 730.727H1760.05V731.828H1756.92L1756.71 733.756H1756.75C1756.88 733.598 1757.08 733.466 1757.32 733.362C1757.57 733.256 1757.84 733.202 1758.13 733.202C1758.57 733.202 1758.96 733.307 1759.31 733.515C1759.66 733.721 1759.93 734.005 1760.13 734.367C1760.33 734.729 1760.43 735.144 1760.43 735.61C1760.43 736.091 1760.31 736.519 1760.09 736.896C1759.87 737.27 1759.56 737.564 1759.17 737.78C1758.78 737.993 1758.33 738.099 1757.82 738.099Z" fill="white"/>
<path d="M2312.4 722.727V730H2311.08V724.009H2311.04L2309.34 725.096V723.888L2311.14 722.727H2312.4ZM2317.2 722.727V730H2315.88V724.009H2315.84L2314.14 725.096V723.888L2315.95 722.727H2317.2ZM2322.01 722.727V730H2320.69V724.009H2320.65L2318.95 725.096V723.888L2320.75 722.727H2322.01Z" fill="white"/>
<path d="M2698.62 738.727V746H2697.31V740.009H2697.26L2695.56 741.096V739.888L2697.37 738.727H2698.62ZM2703.16 746.138C2702.57 746.138 2702.07 745.991 2701.65 745.695C2701.24 745.396 2700.92 744.967 2700.69 744.406C2700.47 743.842 2700.36 743.164 2700.36 742.371C2700.36 741.578 2700.47 740.903 2700.7 740.347C2700.92 739.788 2701.24 739.362 2701.66 739.068C2702.08 738.775 2702.58 738.628 2703.16 738.628C2703.74 738.628 2704.24 738.775 2704.66 739.068C2705.08 739.362 2705.4 739.788 2705.62 740.347C2705.85 740.905 2705.96 741.58 2705.96 742.371C2705.96 743.166 2705.85 743.846 2705.62 744.409C2705.4 744.97 2705.08 745.399 2704.66 745.695C2704.25 745.991 2703.74 746.138 2703.16 746.138ZM2703.16 745.027C2703.61 745.027 2703.97 744.803 2704.24 744.356C2704.5 743.906 2704.63 743.244 2704.63 742.371C2704.63 741.793 2704.57 741.308 2704.45 740.915C2704.33 740.522 2704.16 740.226 2703.94 740.027C2703.72 739.826 2703.46 739.725 2703.16 739.725C2702.71 739.725 2702.35 739.95 2702.09 740.4C2701.82 740.847 2701.69 741.504 2701.69 742.371C2701.69 742.951 2701.75 743.438 2701.86 743.834C2701.98 744.229 2702.15 744.527 2702.37 744.729C2702.6 744.928 2702.86 745.027 2703.16 745.027ZM2709.67 738.628C2710.01 738.63 2710.35 738.692 2710.68 738.812C2711.01 738.931 2711.31 739.125 2711.58 739.395C2711.84 739.662 2712.05 740.021 2712.21 740.471C2712.37 740.921 2712.44 741.477 2712.44 742.14C2712.45 742.765 2712.38 743.324 2712.24 743.816C2712.11 744.306 2711.92 744.72 2711.67 745.059C2711.42 745.397 2711.12 745.656 2710.77 745.833C2710.42 746.011 2710.03 746.099 2709.59 746.099C2709.13 746.099 2708.73 746.009 2708.37 745.83C2708.02 745.65 2707.73 745.403 2707.51 745.091C2707.3 744.778 2707.16 744.421 2707.11 744.018H2708.41C2708.48 744.307 2708.61 744.537 2708.81 744.707C2709.02 744.875 2709.28 744.96 2709.59 744.96C2710.1 744.96 2710.48 744.741 2710.76 744.303C2711.03 743.865 2711.16 743.256 2711.16 742.477H2711.12C2711 742.686 2710.85 742.866 2710.66 743.017C2710.48 743.166 2710.27 743.281 2710.04 743.362C2709.8 743.442 2709.56 743.482 2709.3 743.482C2708.87 743.482 2708.49 743.38 2708.15 743.177C2707.81 742.973 2707.54 742.694 2707.34 742.339C2707.14 741.984 2707.04 741.578 2707.04 741.121C2707.04 740.647 2707.15 740.222 2707.37 739.846C2707.59 739.467 2707.9 739.169 2708.29 738.951C2708.68 738.731 2709.14 738.623 2709.67 738.628ZM2709.67 739.693C2709.41 739.693 2709.18 739.756 2708.98 739.881C2708.77 740.004 2708.61 740.173 2708.49 740.386C2708.38 740.596 2708.32 740.832 2708.32 741.092C2708.32 741.35 2708.38 741.585 2708.49 741.795C2708.61 742.006 2708.77 742.173 2708.97 742.296C2709.17 742.419 2709.4 742.481 2709.66 742.481C2709.85 742.481 2710.03 742.444 2710.19 742.371C2710.36 742.297 2710.5 742.196 2710.63 742.065C2710.75 741.933 2710.85 741.782 2710.92 741.614C2710.99 741.446 2711.02 741.269 2711.02 741.082C2711.02 740.833 2710.96 740.603 2710.84 740.393C2710.73 740.182 2710.57 740.013 2710.36 739.885C2710.16 739.757 2709.93 739.693 2709.67 739.693Z" fill="white"/>
<path d="M2750.03 643.727V651H2748.71V645.009H2748.67L2746.97 646.096V644.888L2748.78 643.727H2750.03ZM2754.56 651.138C2753.98 651.138 2753.48 650.991 2753.06 650.695C2752.64 650.396 2752.32 649.967 2752.1 649.406C2751.87 648.842 2751.76 648.164 2751.76 647.371C2751.77 646.578 2751.88 645.903 2752.1 645.347C2752.33 644.788 2752.65 644.362 2753.06 644.068C2753.48 643.775 2753.98 643.628 2754.56 643.628C2755.15 643.628 2755.65 643.775 2756.07 644.068C2756.49 644.362 2756.81 644.788 2757.03 645.347C2757.25 645.905 2757.37 646.58 2757.37 647.371C2757.37 648.166 2757.25 648.846 2757.03 649.409C2756.81 649.97 2756.49 650.399 2756.07 650.695C2755.65 650.991 2755.15 651.138 2754.56 651.138ZM2754.56 650.027C2755.02 650.027 2755.38 649.803 2755.64 649.356C2755.91 648.906 2756.04 648.244 2756.04 647.371C2756.04 646.793 2755.98 646.308 2755.86 645.915C2755.74 645.522 2755.57 645.226 2755.35 645.027C2755.13 644.826 2754.87 644.725 2754.56 644.725C2754.11 644.725 2753.76 644.95 2753.49 645.4C2753.23 645.847 2753.1 646.504 2753.09 647.371C2753.09 647.951 2753.15 648.438 2753.27 648.834C2753.39 649.229 2753.56 649.527 2753.78 649.729C2754 649.928 2754.26 650.027 2754.56 650.027ZM2758.62 651L2761.71 644.878V644.828H2758.12V643.727H2763.07V644.853L2759.98 651H2758.62Z" fill="white"/>
<path d="M3178.46 722.727V730H3177.15V724.009H3177.1L3175.4 725.096V723.888L3177.21 722.727H3178.46ZM3183 730.138C3182.41 730.138 3181.91 729.991 3181.49 729.695C3181.08 729.396 3180.76 728.967 3180.53 728.406C3180.31 727.842 3180.2 727.164 3180.2 726.371C3180.2 725.578 3180.31 724.903 3180.54 724.347C3180.76 723.788 3181.08 723.362 3181.5 723.068C3181.92 722.775 3182.42 722.628 3183 722.628C3183.58 722.628 3184.08 722.775 3184.5 723.068C3184.92 723.362 3185.24 723.788 3185.46 724.347C3185.69 724.905 3185.8 725.58 3185.8 726.371C3185.8 727.166 3185.69 727.846 3185.46 728.409C3185.24 728.97 3184.92 729.399 3184.5 729.695C3184.09 729.991 3183.58 730.138 3183 730.138ZM3183 729.027C3183.45 729.027 3183.81 728.803 3184.08 728.356C3184.34 727.906 3184.47 727.244 3184.47 726.371C3184.47 725.793 3184.41 725.308 3184.29 724.915C3184.17 724.522 3184 724.226 3183.78 724.027C3183.56 723.826 3183.3 723.725 3183 723.725C3182.55 723.725 3182.19 723.95 3181.93 724.4C3181.66 724.847 3181.53 725.504 3181.53 726.371C3181.53 726.951 3181.59 727.438 3181.7 727.834C3181.82 728.229 3181.99 728.527 3182.21 728.729C3182.43 728.928 3182.7 729.027 3183 729.027ZM3189.94 722.727V730H3188.62V724.009H3188.58L3186.88 725.096V723.888L3188.69 722.727H3189.94Z" fill="white"/>
<path d="M3444.54 280.727V288H3443.22V282.009H3443.18L3441.48 283.096V281.888L3443.28 280.727H3444.54ZM3449.07 288.138C3448.49 288.138 3447.99 287.991 3447.57 287.695C3447.15 287.396 3446.83 286.967 3446.6 286.406C3446.38 285.842 3446.27 285.164 3446.27 284.371C3446.27 283.578 3446.38 282.903 3446.61 282.347C3446.83 281.788 3447.15 281.362 3447.57 281.068C3447.99 280.775 3448.49 280.628 3449.07 280.628C3449.65 280.628 3450.15 280.775 3450.57 281.068C3450.99 281.362 3451.31 281.788 3451.54 282.347C3451.76 282.905 3451.87 283.58 3451.87 284.371C3451.87 285.166 3451.76 285.846 3451.54 286.409C3451.31 286.97 3450.99 287.399 3450.57 287.695C3450.16 287.991 3449.66 288.138 3449.07 288.138ZM3449.07 287.027C3449.53 287.027 3449.89 286.803 3450.15 286.356C3450.41 285.906 3450.55 285.244 3450.55 284.371C3450.55 283.793 3450.49 283.308 3450.36 282.915C3450.24 282.522 3450.07 282.226 3449.85 282.027C3449.63 281.826 3449.37 281.725 3449.07 281.725C3448.62 281.725 3448.26 281.95 3448 282.4C3447.74 282.847 3447.6 283.504 3447.6 284.371C3447.6 284.951 3447.66 285.438 3447.78 285.834C3447.9 286.229 3448.07 286.527 3448.29 286.729C3448.51 286.928 3448.77 287.027 3449.07 287.027ZM3452.92 286.651V285.603L3456.01 280.727H3456.88V282.219H3456.35L3454.27 285.511V285.567H3458.58V286.651H3452.92ZM3456.39 288V286.331L3456.41 285.862V280.727H3457.65V288H3456.39Z" fill="white"/>
<path d="M2959.62 316.727V324H2958.31V318.009H2958.26L2956.56 319.096V317.888L2958.37 316.727H2959.62ZM2964.16 324.138C2963.57 324.138 2963.07 323.991 2962.65 323.695C2962.24 323.396 2961.92 322.967 2961.69 322.406C2961.47 321.842 2961.36 321.164 2961.36 320.371C2961.36 319.578 2961.47 318.903 2961.7 318.347C2961.92 317.788 2962.24 317.362 2962.66 317.068C2963.08 316.775 2963.58 316.628 2964.16 316.628C2964.74 316.628 2965.24 316.775 2965.66 317.068C2966.08 317.362 2966.4 317.788 2966.62 318.347C2966.85 318.905 2966.96 319.58 2966.96 320.371C2966.96 321.166 2966.85 321.846 2966.62 322.409C2966.4 322.97 2966.08 323.399 2965.66 323.695C2965.25 323.991 2964.74 324.138 2964.16 324.138ZM2964.16 323.027C2964.61 323.027 2964.97 322.803 2965.24 322.356C2965.5 321.906 2965.63 321.244 2965.63 320.371C2965.63 319.793 2965.57 319.308 2965.45 318.915C2965.33 318.522 2965.16 318.226 2964.94 318.027C2964.72 317.826 2964.46 317.725 2964.16 317.725C2963.71 317.725 2963.35 317.95 2963.09 318.4C2962.82 318.847 2962.69 319.504 2962.69 320.371C2962.69 320.951 2962.75 321.438 2962.86 321.834C2962.98 322.229 2963.15 322.527 2963.37 322.729C2963.6 322.928 2963.86 323.027 2964.16 323.027ZM2970.8 324.099C2970.46 324.097 2970.12 324.037 2969.79 323.918C2969.45 323.798 2969.16 323.602 2968.89 323.332C2968.63 323.06 2968.41 322.699 2968.26 322.249C2968.1 321.797 2968.03 321.237 2968.03 320.57C2968.03 319.947 2968.09 319.392 2968.23 318.904C2968.36 318.416 2968.55 318.004 2968.8 317.668C2969.05 317.33 2969.35 317.072 2969.7 316.894C2970.05 316.717 2970.44 316.628 2970.88 316.628C2971.34 316.628 2971.74 316.718 2972.09 316.898C2972.45 317.078 2972.74 317.324 2972.95 317.636C2973.17 317.946 2973.31 318.297 2973.36 318.688H2972.06C2972 318.408 2971.86 318.186 2971.65 318.02C2971.45 317.852 2971.19 317.768 2970.88 317.768C2970.38 317.768 2969.99 317.987 2969.71 318.425C2969.44 318.863 2969.31 319.464 2969.31 320.229H2969.36C2969.47 320.02 2969.62 319.842 2969.81 319.692C2969.99 319.543 2970.2 319.429 2970.43 319.348C2970.67 319.265 2970.91 319.224 2971.17 319.224C2971.6 319.224 2971.98 319.326 2972.32 319.529C2972.66 319.733 2972.93 320.013 2973.13 320.371C2973.33 320.726 2973.43 321.133 2973.43 321.592C2973.43 322.071 2973.32 322.5 2973.1 322.881C2972.88 323.26 2972.57 323.558 2972.18 323.776C2971.79 323.994 2971.33 324.102 2970.8 324.099ZM2970.8 323.034C2971.06 323.034 2971.29 322.971 2971.49 322.846C2971.69 322.72 2971.85 322.551 2971.97 322.338C2972.09 322.125 2972.15 321.886 2972.15 321.621C2972.15 321.36 2972.09 321.125 2971.98 320.914C2971.86 320.703 2971.71 320.536 2971.5 320.413C2971.3 320.29 2971.07 320.229 2970.82 320.229C2970.62 320.229 2970.44 320.265 2970.28 320.339C2970.11 320.412 2969.97 320.514 2969.85 320.644C2969.72 320.772 2969.63 320.921 2969.55 321.092C2969.49 321.26 2969.45 321.44 2969.45 321.631C2969.45 321.885 2969.51 322.118 2969.63 322.331C2969.74 322.544 2969.9 322.714 2970.11 322.842C2970.31 322.97 2970.54 323.034 2970.8 323.034Z" fill="white"/>
<path d="M2302.69 320.727V328H2301.38V322.009H2301.33L2299.63 323.096V321.888L2301.44 320.727H2302.69ZM2307.5 320.727V328H2306.18V322.009H2306.14L2304.44 323.096V321.888L2306.25 320.727H2307.5ZM2309.35 328V327.048L2311.87 324.573C2312.11 324.329 2312.31 324.113 2312.47 323.923C2312.64 323.734 2312.76 323.55 2312.84 323.373C2312.92 323.195 2312.96 323.006 2312.96 322.805C2312.96 322.575 2312.9 322.379 2312.8 322.215C2312.7 322.049 2312.55 321.922 2312.37 321.832C2312.19 321.742 2311.98 321.697 2311.75 321.697C2311.51 321.697 2311.3 321.746 2311.12 321.846C2310.94 321.943 2310.8 322.081 2310.7 322.261C2310.6 322.441 2310.56 322.656 2310.56 322.904H2309.3C2309.3 322.442 2309.41 322.041 2309.62 321.7C2309.83 321.359 2310.12 321.095 2310.49 320.908C2310.86 320.721 2311.29 320.628 2311.77 320.628C2312.26 320.628 2312.68 320.719 2313.05 320.901C2313.42 321.084 2313.71 321.333 2313.91 321.651C2314.12 321.968 2314.22 322.33 2314.22 322.737C2314.22 323.009 2314.17 323.277 2314.06 323.54C2313.96 323.803 2313.78 324.094 2313.51 324.413C2313.25 324.733 2312.89 325.12 2312.42 325.575L2311.16 326.849V326.899H2314.33V328H2309.35Z" fill="white"/>
<path d="M1738.56 312.727V320H1737.24V314.009H1737.2L1735.5 315.096V313.888L1737.3 312.727H1738.56ZM1743.36 312.727V320H1742.04V314.009H1742L1740.3 315.096V313.888L1742.11 312.727H1743.36ZM1747.87 320.099C1747.52 320.097 1747.18 320.037 1746.85 319.918C1746.52 319.798 1746.22 319.602 1745.96 319.332C1745.69 319.06 1745.48 318.699 1745.33 318.249C1745.17 317.797 1745.09 317.237 1745.1 316.57C1745.1 315.947 1745.16 315.392 1745.29 314.904C1745.43 314.416 1745.62 314.004 1745.87 313.668C1746.11 313.33 1746.41 313.072 1746.76 312.894C1747.12 312.717 1747.51 312.628 1747.95 312.628C1748.4 312.628 1748.81 312.718 1749.16 312.898C1749.52 313.078 1749.8 313.324 1750.02 313.636C1750.24 313.946 1750.37 314.297 1750.43 314.688H1749.13C1749.06 314.408 1748.93 314.186 1748.72 314.02C1748.52 313.852 1748.26 313.768 1747.95 313.768C1747.44 313.768 1747.05 313.987 1746.78 314.425C1746.51 314.863 1746.38 315.464 1746.37 316.229H1746.42C1746.54 316.02 1746.69 315.842 1746.87 315.692C1747.06 315.543 1747.27 315.429 1747.5 315.348C1747.73 315.265 1747.98 315.224 1748.24 315.224C1748.67 315.224 1749.05 315.326 1749.39 315.529C1749.73 315.733 1750 316.013 1750.2 316.371C1750.4 316.726 1750.5 317.133 1750.49 317.592C1750.5 318.071 1750.39 318.5 1750.17 318.881C1749.95 319.26 1749.64 319.558 1749.25 319.776C1748.85 319.994 1748.4 320.102 1747.87 320.099ZM1747.87 319.034C1748.12 319.034 1748.35 318.971 1748.56 318.846C1748.76 318.72 1748.92 318.551 1749.04 318.338C1749.16 318.125 1749.22 317.886 1749.21 317.621C1749.22 317.36 1749.16 317.125 1749.04 316.914C1748.93 316.703 1748.77 316.536 1748.57 316.413C1748.37 316.29 1748.14 316.229 1747.88 316.229C1747.69 316.229 1747.51 316.265 1747.35 316.339C1747.18 316.412 1747.04 316.514 1746.91 316.644C1746.79 316.772 1746.69 316.921 1746.62 317.092C1746.55 317.26 1746.52 317.44 1746.52 317.631C1746.52 317.885 1746.58 318.118 1746.69 318.331C1746.81 318.544 1746.97 318.714 1747.17 318.842C1747.38 318.97 1747.61 319.034 1747.87 319.034Z" fill="white"/>
<path d="M1358.57 331.727V339H1357.25V333.009H1357.21L1355.51 334.096V332.888L1357.32 331.727H1358.57ZM1363.38 331.727V339H1362.06V333.009H1362.02L1360.32 334.096V332.888L1362.12 331.727H1363.38ZM1367.81 339.099C1367.28 339.099 1366.81 339.011 1366.4 338.833C1366 338.656 1365.68 338.413 1365.44 338.105C1365.21 337.795 1365.1 337.443 1365.1 337.05C1365.1 336.745 1365.17 336.464 1365.3 336.209C1365.44 335.953 1365.62 335.74 1365.85 335.57C1366.08 335.397 1366.34 335.287 1366.62 335.239V335.19C1366.25 335.107 1365.95 334.916 1365.71 334.618C1365.48 334.317 1365.37 333.97 1365.37 333.577C1365.37 333.203 1365.47 332.87 1365.69 332.576C1365.9 332.282 1366.18 332.052 1366.55 331.884C1366.92 331.713 1367.34 331.628 1367.81 331.628C1368.28 331.628 1368.69 331.713 1369.06 331.884C1369.42 332.052 1369.71 332.282 1369.92 332.576C1370.13 332.87 1370.24 333.203 1370.24 333.577C1370.24 333.97 1370.12 334.317 1369.89 334.618C1369.66 334.916 1369.36 335.107 1368.99 335.19V335.239C1369.28 335.287 1369.53 335.397 1369.76 335.57C1369.99 335.74 1370.17 335.953 1370.31 336.209C1370.44 336.464 1370.51 336.745 1370.51 337.05C1370.51 337.443 1370.4 337.795 1370.16 338.105C1369.93 338.413 1369.61 338.656 1369.2 338.833C1368.8 339.011 1368.33 339.099 1367.81 339.099ZM1367.81 338.084C1368.08 338.084 1368.32 338.038 1368.52 337.945C1368.72 337.851 1368.88 337.718 1368.99 337.548C1369.1 337.377 1369.16 337.181 1369.16 336.958C1369.16 336.726 1369.1 336.521 1368.98 336.344C1368.86 336.164 1368.7 336.023 1368.5 335.921C1368.3 335.819 1368.07 335.768 1367.81 335.768C1367.55 335.768 1367.32 335.819 1367.11 335.921C1366.91 336.023 1366.75 336.164 1366.63 336.344C1366.51 336.521 1366.46 336.726 1366.46 336.958C1366.46 337.181 1366.51 337.377 1366.62 337.548C1366.73 337.716 1366.89 337.847 1367.09 337.942C1367.29 338.036 1367.53 338.084 1367.81 338.084ZM1367.81 334.771C1368.03 334.771 1368.23 334.726 1368.4 334.636C1368.57 334.546 1368.71 334.42 1368.81 334.259C1368.91 334.098 1368.96 333.912 1368.96 333.702C1368.96 333.493 1368.91 333.311 1368.81 333.155C1368.71 332.996 1368.58 332.874 1368.41 332.789C1368.23 332.701 1368.03 332.658 1367.81 332.658C1367.58 332.658 1367.38 332.701 1367.2 332.789C1367.03 332.874 1366.89 332.996 1366.8 333.155C1366.7 333.311 1366.66 333.493 1366.66 333.702C1366.66 333.912 1366.7 334.098 1366.8 334.259C1366.9 334.418 1367.04 334.543 1367.21 334.636C1367.38 334.726 1367.58 334.771 1367.81 334.771Z" fill="white"/>
<path d="M3513.76 414.727V422H3512.44V416.009H3512.4L3510.7 417.096V415.888L3512.51 414.727H3513.76ZM3518.3 422.138C3517.71 422.138 3517.21 421.991 3516.79 421.695C3516.37 421.396 3516.05 420.967 3515.83 420.406C3515.61 419.842 3515.49 419.164 3515.49 418.371C3515.5 417.578 3515.61 416.903 3515.83 416.347C3516.06 415.788 3516.38 415.362 3516.79 415.068C3517.21 414.775 3517.71 414.628 3518.3 414.628C3518.88 414.628 3519.38 414.775 3519.8 415.068C3520.22 415.362 3520.54 415.788 3520.76 416.347C3520.99 416.905 3521.1 417.58 3521.1 418.371C3521.1 419.166 3520.99 419.846 3520.76 420.409C3520.54 420.97 3520.22 421.399 3519.8 421.695C3519.38 421.991 3518.88 422.138 3518.3 422.138ZM3518.3 421.027C3518.75 421.027 3519.11 420.803 3519.37 420.356C3519.64 419.906 3519.77 419.244 3519.77 418.371C3519.77 417.793 3519.71 417.308 3519.59 416.915C3519.47 416.522 3519.3 416.226 3519.08 416.027C3518.86 415.826 3518.6 415.725 3518.3 415.725C3517.84 415.725 3517.49 415.95 3517.22 416.4C3516.96 416.847 3516.83 417.504 3516.83 418.371C3516.82 418.951 3516.88 419.438 3517 419.834C3517.12 420.229 3517.29 420.527 3517.51 420.729C3517.73 420.928 3517.99 421.027 3518.3 421.027ZM3522.28 422V421.048L3524.8 418.573C3525.04 418.329 3525.25 418.113 3525.41 417.923C3525.57 417.734 3525.69 417.55 3525.77 417.373C3525.85 417.195 3525.89 417.006 3525.89 416.805C3525.89 416.575 3525.84 416.379 3525.73 416.215C3525.63 416.049 3525.49 415.922 3525.3 415.832C3525.12 415.742 3524.91 415.697 3524.68 415.697C3524.44 415.697 3524.23 415.746 3524.05 415.846C3523.87 415.943 3523.73 416.081 3523.63 416.261C3523.54 416.441 3523.49 416.656 3523.49 416.904H3522.24C3522.24 416.442 3522.34 416.041 3522.55 415.7C3522.76 415.359 3523.05 415.095 3523.42 414.908C3523.79 414.721 3524.22 414.628 3524.7 414.628C3525.19 414.628 3525.62 414.719 3525.99 414.901C3526.35 415.084 3526.64 415.333 3526.84 415.651C3527.05 415.968 3527.15 416.33 3527.15 416.737C3527.15 417.009 3527.1 417.277 3527 417.54C3526.89 417.803 3526.71 418.094 3526.45 418.413C3526.19 418.733 3525.82 419.12 3525.35 419.575L3524.1 420.849V420.899H3527.26V422H3522.28Z" fill="white"/>
</g>
<defs>
<clipPath id="clip0_1705_15939">
<rect width="4096" height="1024" fill="white"/>
</clipPath>
</defs>
</svg>
